<svg id="visual" viewBox="0 0 960 540" width="960" height="540" xmlns="http://www.w3.org/2000/svg" xmlns:xlink="http://www.w3.org/1999/xlink" version="1.1"><rect x="0" y="0" width="960" height="540" fill="#131313"></rect><path d="M234 0L232.5 15C231 30 228 60 231.5 90C235 120 245 150 245.7 180C246.3 210 237.7 240 238.8 270C240 300 251 330 249.8 360C248.7 390 235.3 420 232.8 450C230.3 480 238.7 510 242.8 525L247 540L0 540L0 525C0 510 0 480 0 450C0 420 0 390 0 360C0 330 0 300 0 270C0 240 0 210 0 180C0 150 0 120 0 90C0 60 0 30 0 15L0 0Z" fill="#4f68b6"></path></svg>