<svg id="visual" viewBox="0 0 900 600" width="900" height="600" xmlns="http://www.w3.org/2000/svg" xmlns:xlink="http://www.w3.org/1999/xlink" version="1.1">
    <defs>
        <linearGradient id="grad" x1="0%" y1="0%" x2="100%" y2="100%">
            <stop offset="0%" stop-color="#e9a7cf" />
            <stop offset="100%" stop-color="#cc55e1" />
        </linearGradient>
    </defs>

    <rect x="0" y="0" width="900" height="600" fill="url(#grad)">
    </rect>
    <path d="M0 459L13.7 463.8C27.3 468.7 54.7 478.3 82 484.7C109.3 491 136.7 494 163.8 490.3C191 486.7 218 476.3 245.2 471.8C272.3 467.3 299.7 468.7 327 475.8C354.3 483 381.7 496 409 502.3C436.3 508.7 463.7 508.3 491 504.8C518.3 501.3 545.7 494.7 573 489.2C600.3 483.7 627.7 479.3 654.8 483.2C682 487 709 499 736.2 503C763.3 507 790.7 503 818 494.3C845.3 485.7 872.7 472.3 886.3 465.7L900 459L900 601L886.3 601C872.7 601 845.3 601 818 601C790.7 601 763.3 601 736.2 601C709 601 682 601 654.8 601C627.7 601 600.3 601 573 601C545.7 601 518.3 601 491 601C463.7 601 436.3 601 409 601C381.7 601 354.3 601 327 601C299.7 601 272.3 601 245.2 601C218 601 191 601 163.8 601C136.7 601 109.3 601 82 601C54.7 601 27.3 601 13.7 601L0 601Z" fill="white">
    </path>
</svg>